<?xml version="1.0" encoding="UTF-8"?>
<svg id="_图层_2" data-name="图层 2" xmlns="http://www.w3.org/2000/svg" xmlns:xlink="http://www.w3.org/1999/xlink" viewBox="0 0 48 48">
  <defs>
    <style>
      .cls-1 {
        fill: #6eb92c;
      }

      .cls-2 {
        fill: #33b8bb;
      }

      .cls-3 {
        filter: url(#drop-shadow-1);
      }
    </style>
    <filter id="drop-shadow-1" filterUnits="userSpaceOnUse">
      <feOffset dx=".7" dy=".7"/>
      <feGaussianBlur result="blur" stdDeviation="2.09"/>
      <feFlood flood-color="#231815" flood-opacity=".75"/>
      <feComposite in2="blur" operator="in"/>
      <feComposite in="SourceGraphic"/>
    </filter>
  </defs>
  <g id="_图层_1-2" data-name="图层 1">
    <g>
      <path class="cls-1" d="m12.85,19.62l-.55,1.65,1.93-.98c.86.14,1.61.37,2.48.24-.82-2.79,1.45-5.52,4.56-5.51.2,0,.35,0,.55.04-2.25-8.15-16.9-1.7-8.97,4.56Zm1.53-4.72c-1.04.04-1.11-1.42,0-1.38.94-.06.9,1.41,0,1.38Zm3.89.04c-1.06.04-1.09-1.47,0-1.42.93-.06.93,1.47,0,1.42Z"/>
      <path class="cls-2" d="m10.8,31.2c.66,0,1.2.54,1.2,1.2s-.54,1.2-1.2,1.2h-4.8c-1.59,0-3.12-.63-4.24-1.76-1.13-1.13-1.76-2.65-1.76-4.24V6C0,2.69,2.69,0,6,0h21.6c3.31,0,6,2.69,6,6v4.8c0,.66-.54,1.2-1.2,1.2s-1.2-.54-1.2-1.2v-4.8c0-1.99-1.61-3.6-3.6-3.6H6c-1.99,0-3.6,1.61-3.6,3.6v21.6c0,.95.38,1.87,1.05,2.55.68.68,1.59,1.05,2.55,1.05h4.8Z"/>
      <path class="cls-2" d="m42,14.4h-21.6c-3.31,0-6,2.69-6,6v21.6c0,3.31,2.69,6,6,6h21.6c3.31,0,6-2.69,6-6v-21.6c0-3.31-2.69-6-6-6Zm3.6,27.6c0,1.99-1.61,3.6-3.6,3.6h-21.6c-1.99,0-3.6-1.61-3.6-3.6v-21.6c0-.95.38-1.87,1.05-2.55.68-.68,1.59-1.05,2.55-1.05h21.6c1.99,0,3.6,1.61,3.6,3.6v21.6Z"/>
      <g class="cls-3">
        <path class="cls-1" d="m34.35,28.37c.22,0,.39,0,.61.04-2.49-9.06-18.77-1.88-9.96,5.07l-.61,1.84,2.14-1.09c.95.16,1.79.41,2.75.26-.92-3.1,1.61-6.13,5.07-6.12Zm-3.32-1.66c1.04-.06,1.04,1.64,0,1.57-1.18.05-1.21-1.63,0-1.57Zm-4.33,1.53c-1.16.04-1.23-1.57,0-1.53,1.04-.06,1,1.57,0,1.53h0Zm13.29,4.94c0-5.79-10.6-5.76-10.49,0-.1,3.13,3.93,5.28,7.08,4.15l1.7.92-.48-1.53c1.27-.92,2.19-2.14,2.19-3.54h0Zm-6.95-.79c-.78-.02-.78-1.2,0-1.22,1.06,0,.97,1.2,0,1.22h0Zm3.41,0c-.78-.02-.78-1.2,0-1.22,1.06,0,.97,1.2,0,1.22h0Z"/>
      </g>
    </g>
  </g>
</svg>